<mxfile host="app.diagrams.net" agent="Mozilla/5.0 (Windows NT 10.0; Win64; x64) AppleWebKit/537.36 (KHTML, like Gecko) Chrome/127.0.0.0 Safari/537.36" version="27.1.6">
  <diagram name="Page-1" id="08qFewYzs-k75HSWImQp">
    <mxGraphModel dx="1426" dy="743" grid="0" gridSize="10" guides="1" tooltips="1" connect="1" arrows="1" fold="1" page="1" pageScale="1" pageWidth="1100" pageHeight="850" math="0" shadow="0">
      <root>
        <mxCell id="0" />
        <mxCell id="1" parent="0" />
        <mxCell id="iVUNAqqNhtYO9G9pntyf-3" value="Amazon API Gateway" style="sketch=0;outlineConnect=0;fontColor=#232F3E;gradientColor=none;strokeColor=#ffffff;fillColor=#232F3E;dashed=0;verticalLabelPosition=middle;verticalAlign=bottom;align=center;html=1;whiteSpace=wrap;fontSize=10;fontStyle=1;spacing=3;shape=mxgraph.aws4.productIcon;prIcon=mxgraph.aws4.api_gateway;" vertex="1" parent="1">
          <mxGeometry x="446" y="293" width="80" height="110" as="geometry" />
        </mxCell>
        <mxCell id="iVUNAqqNhtYO9G9pntyf-8" value="Amazon Cognito" style="sketch=0;outlineConnect=0;fontColor=#232F3E;gradientColor=none;strokeColor=#ffffff;fillColor=#232F3E;dashed=0;verticalLabelPosition=middle;verticalAlign=bottom;align=center;html=1;whiteSpace=wrap;fontSize=10;fontStyle=1;spacing=3;shape=mxgraph.aws4.productIcon;prIcon=mxgraph.aws4.cognito;" vertex="1" parent="1">
          <mxGeometry x="218" y="542" width="80" height="110" as="geometry" />
        </mxCell>
        <mxCell id="iVUNAqqNhtYO9G9pntyf-16" value="" style="swimlane;startSize=0;" vertex="1" parent="1">
          <mxGeometry x="662" y="40" width="389" height="616" as="geometry" />
        </mxCell>
        <mxCell id="iVUNAqqNhtYO9G9pntyf-4" value="AWS Lambda" style="sketch=0;outlineConnect=0;fontColor=#232F3E;gradientColor=none;strokeColor=#ffffff;fillColor=#232F3E;dashed=0;verticalLabelPosition=middle;verticalAlign=bottom;align=center;html=1;whiteSpace=wrap;fontSize=10;fontStyle=1;spacing=3;shape=mxgraph.aws4.productIcon;prIcon=mxgraph.aws4.lambda;" vertex="1" parent="iVUNAqqNhtYO9G9pntyf-16">
          <mxGeometry x="33" y="253" width="80" height="100" as="geometry" />
        </mxCell>
        <mxCell id="iVUNAqqNhtYO9G9pntyf-12" value="" style="group" vertex="1" connectable="0" parent="iVUNAqqNhtYO9G9pntyf-16">
          <mxGeometry x="184" y="90" width="174" height="100" as="geometry" />
        </mxCell>
        <mxCell id="iVUNAqqNhtYO9G9pntyf-5" value="Amazon EC2" style="sketch=0;outlineConnect=0;fontColor=#232F3E;gradientColor=none;strokeColor=#ffffff;fillColor=#232F3E;dashed=0;verticalLabelPosition=middle;verticalAlign=bottom;align=center;html=1;whiteSpace=wrap;fontSize=10;fontStyle=1;spacing=3;shape=mxgraph.aws4.productIcon;prIcon=mxgraph.aws4.ec2;" vertex="1" parent="iVUNAqqNhtYO9G9pntyf-12">
          <mxGeometry width="80" height="100" as="geometry" />
        </mxCell>
        <mxCell id="iVUNAqqNhtYO9G9pntyf-11" value="" style="group" vertex="1" connectable="0" parent="iVUNAqqNhtYO9G9pntyf-12">
          <mxGeometry x="80" y="10" width="94" height="68" as="geometry" />
        </mxCell>
        <mxCell id="iVUNAqqNhtYO9G9pntyf-6" value="" style="image;aspect=fixed;perimeter=ellipsePerimeter;html=1;align=center;shadow=0;dashed=0;spacingTop=3;image=img/lib/active_directory/database.svg;" vertex="1" parent="iVUNAqqNhtYO9G9pntyf-11">
          <mxGeometry x="25" width="50" height="37" as="geometry" />
        </mxCell>
        <mxCell id="iVUNAqqNhtYO9G9pntyf-10" value="&lt;font style=&quot;font-size: 14px;&quot;&gt;PostGreSQL&lt;/font&gt;" style="text;html=1;align=center;verticalAlign=middle;resizable=0;points=[];autosize=1;strokeColor=none;fillColor=none;" vertex="1" parent="iVUNAqqNhtYO9G9pntyf-11">
          <mxGeometry x="-3" y="39" width="97" height="29" as="geometry" />
        </mxCell>
        <mxCell id="iVUNAqqNhtYO9G9pntyf-7" value="Amazon S3" style="sketch=0;outlineConnect=0;fontColor=#232F3E;gradientColor=none;strokeColor=#ffffff;fillColor=#232F3E;dashed=0;verticalLabelPosition=middle;verticalAlign=bottom;align=center;html=1;whiteSpace=wrap;fontSize=10;fontStyle=1;spacing=3;shape=mxgraph.aws4.productIcon;prIcon=mxgraph.aws4.s3;" vertex="1" parent="iVUNAqqNhtYO9G9pntyf-16">
          <mxGeometry x="231" y="393" width="80" height="100" as="geometry" />
        </mxCell>
        <mxCell id="iVUNAqqNhtYO9G9pntyf-13" value="Amazon VPC" style="sketch=0;outlineConnect=0;fontColor=#232F3E;gradientColor=none;strokeColor=#ffffff;fillColor=#232F3E;dashed=0;verticalLabelPosition=middle;verticalAlign=bottom;align=center;html=1;whiteSpace=wrap;fontSize=10;fontStyle=1;spacing=3;shape=mxgraph.aws4.productIcon;prIcon=mxgraph.aws4.vpc;" vertex="1" parent="iVUNAqqNhtYO9G9pntyf-16">
          <mxGeometry x="-26" y="-33" width="80" height="100" as="geometry" />
        </mxCell>
        <mxCell id="iVUNAqqNhtYO9G9pntyf-23" value="" style="endArrow=classic;html=1;rounded=0;" edge="1" parent="iVUNAqqNhtYO9G9pntyf-16" source="iVUNAqqNhtYO9G9pntyf-4" target="iVUNAqqNhtYO9G9pntyf-5">
          <mxGeometry width="50" height="50" relative="1" as="geometry">
            <mxPoint x="-262" y="368" as="sourcePoint" />
            <mxPoint x="-212" y="318" as="targetPoint" />
          </mxGeometry>
        </mxCell>
        <mxCell id="iVUNAqqNhtYO9G9pntyf-24" value="" style="endArrow=classic;html=1;rounded=0;" edge="1" parent="iVUNAqqNhtYO9G9pntyf-16" source="iVUNAqqNhtYO9G9pntyf-4" target="iVUNAqqNhtYO9G9pntyf-7">
          <mxGeometry width="50" height="50" relative="1" as="geometry">
            <mxPoint x="-262" y="368" as="sourcePoint" />
            <mxPoint x="-212" y="318" as="targetPoint" />
          </mxGeometry>
        </mxCell>
        <mxCell id="iVUNAqqNhtYO9G9pntyf-25" value="Documents" style="text;html=1;align=center;verticalAlign=middle;resizable=0;points=[];autosize=1;strokeColor=none;fillColor=none;fontSize=16;" vertex="1" parent="iVUNAqqNhtYO9G9pntyf-16">
          <mxGeometry x="102" y="393" width="99" height="31" as="geometry" />
        </mxCell>
        <mxCell id="iVUNAqqNhtYO9G9pntyf-38" value="Client Info" style="text;html=1;align=center;verticalAlign=middle;resizable=0;points=[];autosize=1;strokeColor=none;fillColor=none;fontSize=16;" vertex="1" parent="iVUNAqqNhtYO9G9pntyf-16">
          <mxGeometry x="75" y="167" width="90" height="31" as="geometry" />
        </mxCell>
        <mxCell id="iVUNAqqNhtYO9G9pntyf-19" value="" style="group" vertex="1" connectable="0" parent="1">
          <mxGeometry x="158" y="227" width="200" height="242" as="geometry" />
        </mxCell>
        <mxCell id="iVUNAqqNhtYO9G9pntyf-17" value="" style="swimlane;startSize=0;" vertex="1" parent="iVUNAqqNhtYO9G9pntyf-19">
          <mxGeometry width="200" height="200" as="geometry" />
        </mxCell>
        <mxCell id="iVUNAqqNhtYO9G9pntyf-39" value="" style="shape=image;html=1;verticalAlign=top;verticalLabelPosition=bottom;labelBackgroundColor=#ffffff;imageAspect=0;aspect=fixed;image=https://cdn1.iconfinder.com/data/icons/bootstrap-vol-3/16/filetype-html-128.png" vertex="1" parent="iVUNAqqNhtYO9G9pntyf-17">
          <mxGeometry x="36" y="34" width="128" height="128" as="geometry" />
        </mxCell>
        <mxCell id="iVUNAqqNhtYO9G9pntyf-18" value="Frontend" style="text;html=1;align=center;verticalAlign=middle;resizable=0;points=[];autosize=1;strokeColor=none;fillColor=none;fontSize=20;" vertex="1" parent="iVUNAqqNhtYO9G9pntyf-19">
          <mxGeometry x="51" y="206" width="98" height="36" as="geometry" />
        </mxCell>
        <mxCell id="iVUNAqqNhtYO9G9pntyf-20" value="" style="endArrow=classic;html=1;rounded=0;entryX=-0.03;entryY=0.415;entryDx=0;entryDy=0;entryPerimeter=0;" edge="1" parent="1" source="iVUNAqqNhtYO9G9pntyf-14" target="iVUNAqqNhtYO9G9pntyf-17">
          <mxGeometry width="50" height="50" relative="1" as="geometry">
            <mxPoint x="400" y="408" as="sourcePoint" />
            <mxPoint x="450" y="358" as="targetPoint" />
          </mxGeometry>
        </mxCell>
        <mxCell id="iVUNAqqNhtYO9G9pntyf-21" value="" style="endArrow=classic;html=1;rounded=0;exitX=1;exitY=0.535;exitDx=0;exitDy=0;exitPerimeter=0;" edge="1" parent="1" source="iVUNAqqNhtYO9G9pntyf-17">
          <mxGeometry width="50" height="50" relative="1" as="geometry">
            <mxPoint x="361" y="332" as="sourcePoint" />
            <mxPoint x="444" y="336" as="targetPoint" />
          </mxGeometry>
        </mxCell>
        <mxCell id="iVUNAqqNhtYO9G9pntyf-22" value="" style="endArrow=classic;html=1;rounded=0;exitX=1;exitY=0.4;exitDx=0;exitDy=0;exitPerimeter=0;entryX=0.008;entryY=0.481;entryDx=0;entryDy=0;entryPerimeter=0;" edge="1" parent="1" source="iVUNAqqNhtYO9G9pntyf-3" target="iVUNAqqNhtYO9G9pntyf-16">
          <mxGeometry width="50" height="50" relative="1" as="geometry">
            <mxPoint x="400" y="408" as="sourcePoint" />
            <mxPoint x="450" y="358" as="targetPoint" />
          </mxGeometry>
        </mxCell>
        <mxCell id="iVUNAqqNhtYO9G9pntyf-40" value="" style="endArrow=classic;html=1;rounded=0;exitX=0.173;exitY=1.056;exitDx=0;exitDy=0;exitPerimeter=0;" edge="1" parent="1" source="iVUNAqqNhtYO9G9pntyf-18" target="iVUNAqqNhtYO9G9pntyf-8">
          <mxGeometry width="50" height="50" relative="1" as="geometry">
            <mxPoint x="454" y="315" as="sourcePoint" />
            <mxPoint x="504" y="265" as="targetPoint" />
          </mxGeometry>
        </mxCell>
        <mxCell id="iVUNAqqNhtYO9G9pntyf-41" value="" style="endArrow=classic;html=1;rounded=0;entryX=0.735;entryY=0.972;entryDx=0;entryDy=0;entryPerimeter=0;" edge="1" parent="1" source="iVUNAqqNhtYO9G9pntyf-8" target="iVUNAqqNhtYO9G9pntyf-18">
          <mxGeometry width="50" height="50" relative="1" as="geometry">
            <mxPoint x="454" y="315" as="sourcePoint" />
            <mxPoint x="504" y="265" as="targetPoint" />
          </mxGeometry>
        </mxCell>
        <mxCell id="iVUNAqqNhtYO9G9pntyf-43" value="" style="group" vertex="1" connectable="0" parent="1">
          <mxGeometry x="6" y="282" width="52" height="101" as="geometry" />
        </mxCell>
        <mxCell id="iVUNAqqNhtYO9G9pntyf-14" value="Actor" style="shape=umlActor;verticalLabelPosition=bottom;verticalAlign=top;html=1;outlineConnect=0;fontColor=none;noLabel=1;" vertex="1" parent="iVUNAqqNhtYO9G9pntyf-43">
          <mxGeometry x="14" width="30" height="60" as="geometry" />
        </mxCell>
        <mxCell id="iVUNAqqNhtYO9G9pntyf-42" value="User" style="text;html=1;align=center;verticalAlign=middle;resizable=0;points=[];autosize=1;strokeColor=none;fillColor=none;fontSize=16;" vertex="1" parent="iVUNAqqNhtYO9G9pntyf-43">
          <mxGeometry y="70" width="52" height="31" as="geometry" />
        </mxCell>
      </root>
    </mxGraphModel>
  </diagram>
</mxfile>
